<?xml version="1.0" standalone="no"?>
<!DOCTYPE svg PUBLIC "-//W3C//DTD SVG 20010904//EN"
 "http://www.w3.org/TR/2001/REC-SVG-20010904/DTD/svg10.dtd">
<svg version="1.0" xmlns="http://www.w3.org/2000/svg"
 width="256.000000pt" height="256.000000pt" viewBox="0 0 256.000000 256.000000"
 preserveAspectRatio="xMidYMid meet">

<g transform="translate(0.000000,256.000000) scale(0.100000,-0.100000)"
fill="#000000" stroke="none">
<path d="M1125 2515 c-281 -61 -405 -231 -438 -597 l-11 -128 -242 0 c-234 0
-242 -1 -275 -23 -73 -48 -70 -6 -67 -832 l3 -740 22 -31 c49 -68 -20 -64
1135 -64 1164 0 1086 -5 1135 69 l23 35 -2 753 -3 753 -38 37 -37 38 -269 3
-270 3 -6 67 c-27 297 -72 440 -170 537 -110 110 -311 160 -490 120z m253 -50
c132 -31 222 -100 273 -210 45 -97 65 -192 83 -402 l6 -63 -505 0 -505 0 0 43
c0 213 69 428 166 516 113 105 318 154 482 116z m-698 -845 l0 -110 25 0 25 0
0 110 0 110 505 0 505 0 0 -110 0 -110 25 0 25 0 0 110 0 110 254 0 c140 0
262 -3 271 -6 45 -18 45 -21 45 -779 0 -737 0 -742 -39 -772 -12 -10 -257 -12
-1069 -13 l-1053 0 -24 25 -25 24 0 734 c0 728 0 735 21 761 l20 26 245 0 244
0 0 -110z"/>
</g>
</svg>
