<?xml version="1.0" standalone="no"?>
<!DOCTYPE svg PUBLIC "-//W3C//DTD SVG 20010904//EN"
 "http://www.w3.org/TR/2001/REC-SVG-20010904/DTD/svg10.dtd">
<svg version="1.0" xmlns="http://www.w3.org/2000/svg"
 width="256.000000pt" height="256.000000pt" viewBox="0 0 256.000000 256.000000"
 preserveAspectRatio="xMidYMid meet">

<g transform="translate(0.000000,256.000000) scale(0.100000,-0.100000)"
fill="#000000" stroke="none">
<path d="M565 2371 c-94 -26 -173 -77 -260 -165 -129 -131 -185 -264 -185
-436 0 -245 136 -498 469 -873 150 -169 680 -697 700 -697 19 0 533 511 687
684 336 374 484 646 484 886 0 259 -189 518 -436 596 -207 66 -388 -9 -658
-270 l-79 -77 -96 94 c-243 238 -429 315 -626 258z m186 -51 c125 -24 233 -95
422 -279 l117 -114 123 119 c188 185 289 251 418 275 127 23 275 -34 391 -152
111 -113 168 -250 168 -400 -1 -239 -134 -477 -491 -874 -173 -193 -594 -608
-612 -603 -17 3 -305 284 -506 493 -320 332 -504 594 -570 809 -26 86 -29 245
-5 327 54 185 238 366 404 398 63 12 80 12 141 1z"/>
</g>
</svg>
