<?xml version="1.0" standalone="no"?>
<!DOCTYPE svg PUBLIC "-//W3C//DTD SVG 20010904//EN"
 "http://www.w3.org/TR/2001/REC-SVG-20010904/DTD/svg10.dtd">
<svg version="1.0" xmlns="http://www.w3.org/2000/svg"
 width="256.000000pt" height="256.000000pt" viewBox="0 0 256.000000 256.000000"
 preserveAspectRatio="xMidYMid meet">

<g transform="translate(0.000000,256.000000) scale(0.100000,-0.100000)"
fill="#000000" stroke="none">
<path d="M1200 2491 c-142 -46 -242 -129 -306 -256 -110 -219 -38 -479 169
-613 97 -62 170 -84 287 -85 140 -1 249 39 350 130 109 98 160 211 160 358 0
142 -40 236 -144 340 -67 66 -120 98 -211 126 -79 25 -228 25 -305 0z m323
-80 c33 -13 82 -42 110 -65 191 -154 212 -423 48 -600 -86 -93 -196 -139 -330
-138 -188 1 -344 104 -412 272 -17 42 -22 76 -22 147 -1 86 2 97 36 165 56
113 140 187 261 230 74 26 230 20 309 -11z"/>
<path d="M1291 1405 c-18 -8 -97 -77 -175 -152 -242 -236 -390 -375 -701 -658
-126 -115 -255 -233 -285 -261 -30 -28 -73 -67 -95 -86 -37 -33 -38 -38 -27
-63 7 -14 19 -25 27 -23 11 2 234 202 530 474 17 15 82 75 145 133 146 134
249 232 421 399 206 201 215 206 288 150 39 -30 250 -254 431 -458 41 -46 113
-127 160 -180 99 -110 422 -477 463 -526 33 -39 47 -42 72 -14 18 20 18 21 -7
48 -13 15 -74 83 -134 152 -150 173 -568 644 -625 705 -326 353 -338 365 -411
371 -25 3 -57 -2 -77 -11z"/>
</g>
</svg>
